#Unknown ASF file
:ROOT_YZX
:FOOT_3DOF
:FULLY-SPECIFIED
:DEGREES
259
root -3.58621 17.3907 19.6541 -4.03178 -0.32782 4.05993
lfemur -4.00433 -3.00901 -27.7266
ltibia 37.4871
lfoot -19.5731 0 -3.08448
ltoes -17.7896
rfemur -29.4347 -12.435 15.8624
rtibia 61.4757
rfoot -12.7016 0 -6.80258
rtoes -12.7004
lowerback 11.1024 1.92325 -6.16459
upperback 2.02009 1.83779 0.242623
thorax -4.30885 0.993617 3.45711
lowerneck -17.777 -3.9608 -16.6762
upperneck 16.7037 -3.71058 13.4177
head 8.70991 -1.47245 6.96164
lclavicle 2.14687e-014 -2.78299e-015
lhumerus -30.8063 9.21589 82.9056
lradius 24.3986
lwrist -4.41391
lhand -12.7039 30.5764
lfingers 7.12502
lthumb 13.3786 60.1269
rclavicle 2.14687e-014 -2.78299e-015
rhumerus -33.0434 -7.23084 -80.7508
rradius 32.534
rwrist 0.5836
rhand -22.5335 13.3949
rfingers 7.12502
rthumb 3.89363 -16.5493
260
root -3.60885 17.5137 20.1656 -3.56825 0.0622176 4.839
lfemur -0.936565 -3.23426 -28.4826
ltibia 33.6968
lfoot -18.1364 0 -3.90926
ltoes -20.495
rfemur -30.74 -11.7857 15.8225
rtibia 50.7191
rfoot -9.66481 0 -7.48851
rtoes -12.3309
lowerback 10.9658 1.24321 -6.98017
upperback 1.86099 0.850966 0.357224
thorax -4.30647 0.522266 4.18891
lowerneck -19.1977 -4.32687 -15.2278
upperneck 18.2788 -4.13773 11.6783
head 9.5086 -1.73581 6.0761
lclavicle -3.45388e-015 6.36111e-015
lhumerus -28.8695 6.56968 84.0905
lradius 25.6458
lwrist -3.40998
lhand -12.6933 30.5876
lfingers 7.12502
lthumb 13.3889 60.1374
rclavicle -3.45388e-015 6.36111e-015
rhumerus -33.8235 -6.77493 -80.8701
rradius 30.8216
rwrist 1.51147
rhand -21.951 14.5957
rfingers 7.12502
rthumb 4.45604 -15.3374
261
root -3.64349 17.5945 20.6999 -3.09107 -0.0522325 5.408
lfemur 2.72607 -2.83114 -28.9079
ltibia 29.3645
lfoot -17.0122 0 -4.2995
ltoes -23.3158
rfemur -30.4537 -9.93042 15.5647
rtibia 38.3123
rfoot -6.9252 0 -7.63175
rtoes -11.5963
lowerback 10.6122 0.790457 -7.58746
upperback 1.84344 0.217531 0.537647
thorax -4.05093 0.209727 4.81641
lowerneck -18.88 -4.13499 -15.2934
upperneck 18.0906 -3.98512 12.1059
head 9.37167 -1.63023 6.25988
lclavicle 1.14798e-014 -6.75868e-015
lhumerus -27.1975 3.46406 85.1194
lradius 27.6398
lwrist -2.32827
lhand -13.757 29.3499
lfingers 7.12502
lthumb 12.3634 58.9644
rclavicle 1.14798e-014 -6.75868e-015
rhumerus -34.4954 -6.75597 -80.6436
rradius 29.7548
rwrist 3.37509
rhand -22.8685 16.7488
rfingers 7.12502
rthumb 3.57013 -13.201
262
root -3.68073 17.6322 21.3034 -3.04978 0.531254 6.35273
lfemur 7.36065 -2.26735 -29.6872
ltibia 24.7052
lfoot -15.9672 0 -5.11443
ltoes -24.4351
rfemur -28.3315 -7.0112 13.6848
rtibia 26.1098
rfoot -8.59355 0 -8.04619
rtoes -17.5203
lowerback 9.62358 0.116143 -8.49855
upperback 2.05674 -0.671523 0.644349
thorax -3.13784 -0.265846 5.55095
lowerneck -17.3003 -3.70765 -16.0105
upperneck 16.763 -3.67346 13.6516
head 8.6267 -1.40533 6.93722
lclavicle 1.43125e-014 1.19271e-014
lhumerus -25.6274 0.248879 85.9211
lradius 29.2856
lwrist -0.852124
lhand -14.2211 28.4842
lfingers 7.12502
lthumb 11.9159 58.1251
rclavicle 1.43125e-014 1.19271e-014
rhumerus -35.8242 -5.9994 -80.5646
rradius 28.9794
rwrist 2.30149
rhand -21.5594 15.3864
rfingers 7.12502
rthumb 4.83425 -14.5385
263
root -3.74744 17.6196 21.8918 -2.55799 1.09184 6.41384
lfemur 11.0432 -2.06444 -29.2019
ltibia 20.4406
lfoot -14.7772 0 -6.54849
ltoes -24.7101
rfemur -27.6682 -1.48803 11.7734
rtibia 18.6802
rfoot -11.1595 0 -12.1334
rtoes -19.4614
lowerback 9.18312 -0.444638 -8.63531
upperback 1.70884 -1.39251 0.922541
thorax -3.13378 -0.610727 6.00096
lowerneck -16.1562 -3.55749 -15.6793
upperneck 16.2546 -3.70072 13.7069
head 8.24834 -1.42229 6.86931
lclavicle -1.17283e-014 5.56597e-015
lhumerus -25.2674 -3.4364 86.4853
lradius 32.0048
lwrist 2.24868
lhand -15.8047 26.2608
lfingers 7.12502
lthumb 10.3885 55.9842
rclavicle -1.17283e-014 5.56597e-015
rhumerus -37.479 -6.48079 -79.9603
rradius 28.1787
rwrist 2.32073
rhand -21.5599 15.6957
rfingers 7.12502
rthumb 4.83378 -14.2291
264
root -3.80384 17.5524 22.483 -1.99064 1.52955 6.40374
lfemur 12.8921 -2.1238 -28.7234
ltibia 19.3184
lfoot -14.4623 0 -7.99413
ltoes -25.8328
rfemur -28.3521 -1.886 11.9795
rtibia 17.9368
rfoot -11.415 0 -11.4224
rtoes -22.1461
lowerback 8.90971 -0.979439 -8.54458
upperback 1.40431 -2.06665 1.33099
thorax -3.17714 -0.933253 6.45238
lowerneck -16.1075 -3.51764 -15.5615
upperneck 16.4223 -3.70307 13.7374
head 8.29336 -1.41674 6.86577
lclavicle -1.53064e-014 -1.35174e-014
lhumerus -24.7038 -5.27316 86.8045
lradius 35.2842
lwrist 2.97646
lhand -14.7421 28.9
lfingers 7.12502
lthumb 11.4134 58.5694
rclavicle -1.53064e-014 -1.35174e-014
rhumerus -39.091 -7.2676 -78.7334
rradius 28.2921
rwrist 4.10871
rhand -20.8477 14.9544
rfingers 7.12502
rthumb 5.52135 -14.9537
265
root -3.86158 17.4517 23.0999 -1.65227 1.37403 6.57113
lfemur 14.9907 -2.32301 -28.6848
ltibia 19.021
lfoot -14.4693 0 -7.97772
ltoes -31.1372
rfemur -29.42 -3.95485 13.033
rtibia 21.5138
rfoot -9.42883 0 -8.13915
rtoes -20.7157
lowerback 8.86233 -1.24879 -8.5777
upperback 1.32172 -2.41515 1.65556
thorax -3.16118 -1.10348 6.8528
lowerneck -16.969 -3.53037 -15.2147
upperneck 16.8425 -3.65549 13.4427
head 8.56938 -1.37697 6.72546
lclavicle -2.88238e-015 6.36111e-015
lhumerus -23.949 -5.88231 86.8669
lradius 37.8211
lwrist 2.94489
lhand -12.6984 29.8884
lfingers 7.12502
lthumb 13.3839 59.4385
rclavicle -2.88238e-015 6.36111e-015
rhumerus -39.9894 -8.87216 -77.1707
rradius 26.8691
rwrist 5.27821
rhand -21.2594 12.7463
rfingers 7.12502
rthumb 5.12392 -17.1717
266
root -3.93982 17.3863 23.8034 -1.62791 1.85021 7.10434
lfemur 17.7278 -2.90741 -29.0584
ltibia 18.1084
lfoot -12.2132 0 -9.18961
ltoes -30.4778
rfemur -29.2716 -4.24822 12.7822
rtibia 25.4656
rfoot -8.53023 0 -5.09392
rtoes -17.8861
lowerback 8.33114 -1.65099 -8.99114
upperback 1.37104 -2.93445 1.7614
thorax -2.69176 -1.38465 7.22265
lowerneck -16.5556 -3.42166 -15.2722
upperneck 16.5008 -3.66931 14.1508
head 8.39684 -1.33001 6.97746
lclavicle 5.96354e-014 1.43125e-014
lhumerus -24.2359 -6.01249 87.0265
lradius 39.933
lwrist 3.51497
lhand -20.1712 23.8572
lfingers 7.12502
lthumb 6.17456 53.7472
rclavicle 5.96354e-014 1.43125e-014
rhumerus -41.2977 -11.6124 -75.0617
rradius 25.5746
rwrist 6.53694
rhand -21.4034 12.9549
rfingers 7.12502
rthumb 4.98487 -16.9665
267
root -4.0071 17.4288 24.534 -0.883599 1.48173 6.57082
lfemur 18.772 -3.65041 -28.6477
ltibia 18.5883
lfoot -8.37734 0 -9.27437
ltoes -31.292
rfemur -29.8725 -4.46733 13.6425
rtibia 28.0857
rfoot -4.04037 0 -5.33223
rtoes -17.3887
lowerback 8.09907 -1.9105 -8.24979
upperback 0.472133 -3.20185 2.39964
thorax -3.4624 -1.45154 7.52427
lowerneck -16.3366 -3.14207 -15.128
upperneck 17.0959 -3.32119 13.7775
head 8.48724 -1.20429 6.87966
lclavicle 2.87244e-014 1.59028e-015
lhumerus -25.8536 -5.20563 87.8759
lradius 40.9739
lwrist 4.17413
lhand -15.771 27.4352
lfingers 7.12502
lthumb 10.421 57.157
rclavicle 2.87244e-014 1.59028e-015
rhumerus -43.6313 -13.2993 -72.2578
rradius 24.3799
rwrist 6.79492
rhand -21.1588 12.184
rfingers 7.12502
rthumb 5.22102 -17.7317
268
root -4.05353 17.4666 25.2698 -0.642609 -0.292724 3.99395
lfemur 18.2482 -2.11271 -25.6565
ltibia 22.9611
lfoot -3.52768 0 -9.79838
ltoes -32.5266
rfemur -29.2266 -5.55708 17.4326
rtibia 30.4221
rfoot -1.8754 0 -2.64685
rtoes -16.4639
lowerback 7.94362 -1.69634 -5.24214
upperback 0.18634 -2.58787 3.59784
thorax -3.86535 -1.1611 7.02473
lowerneck -16.6437 -3.00042 -14.8131
upperneck 17.7939 -3.00402 12.7814
head 8.70611 -1.12877 6.52894
lclavicle -4.25399e-014 -1.11319e-014
lhumerus -27.2347 -3.72981 89.0946
lradius 41.2983
lwrist 5.56562
lhand -14.6532 30.3201
lfingers 7.12502
lthumb 11.4992 59.9847
rclavicle -4.25399e-014 -1.11319e-014
rhumerus -44.8796 -15.9776 -68.5409
rradius 22.4062
rwrist 8.54213
rhand -20.9536 11.8366
rfingers 7.12502
rthumb 5.41917 -18.0741
269
root -4.15032 17.5056 26.0015 -0.759906 -1.67986 2.69785
lfemur 16.2925 0.136133 -23.3236
ltibia 29.2447
lfoot 4.70785 0 -10.3398
ltoes -32.9149
rfemur -27.8796 -5.30053 19.2874
rtibia 33.0748
rfoot -3.65275 0 -0.175679
rtoes -11.8155
lowerback 8.134 -1.53789 -4.13974
upperback 0.0982875 -2.24616 4.40037
thorax -4.12853 -0.993172 7.22887
lowerneck -17.4599 -2.629 -14.2062
upperneck 18.6227 -2.427 12.0358
head 9.02958 -0.878572 6.26375
lclavicle 1.42131e-014 1.11319e-014
lhumerus -28.5122 -3.22963 89.8642
lradius 40.99
lwrist 6.16019
lhand -23.093 17.6873
lfingers 7.12502
lthumb 3.35333 47.6406
rclavicle 1.42131e-014 1.11319e-014
rhumerus -45.8616 -17.6142 -65.9354
rradius 21.4964
rwrist 9.40671
rhand -20.4745 10.7183
rfingers 7.12502
rthumb 5.88176 -19.1801
